<svg width="470" height="174" viewBox="0 0 470 174" fill="none" xmlns="http://www.w3.org/2000/svg">
<path d="M19 141.445L52.5 104.457M52.5 104.457C40.5 93.4451 28.5 61.9561 52.5 35.9561C56.5 30.4441 78 14.4451 105.5 23.9571C131.562 32.9721 137.833 58.2901 137.5 69.9561C137.5 76.4561 136.5 91.4451 125.5 102.956C117.615 111.207 87.5 130.458 52.5 104.457Z" stroke="url(#paint0_linear_16_11)" stroke-width="14" stroke-linecap="round"/>
<path d="M87.822 88C97.17 88 102.198 90.703 105.102 93.312C106.655 94.708 107.856 96.31 108.803 97.978L105.59 101.495C102.771 102.915 98.26 104.69 93.108 105.681C87.067 106.843 81.069 106.756 76.079 104.733C70.533 102.485 68.18 100.432 67.298 99.417C68.314 96.531 73.087 88 87.822 88Z" stroke="url(#paint1_linear_16_11)" stroke-width="20" stroke-linecap="round"/>
<path d="M89 73C97.2843 73 104 66.2843 104 58C104 49.7157 97.2843 43 89 43C80.7157 43 74 49.7157 74 58C74 66.2843 80.7157 73 89 73Z" fill="url(#paint2_linear_16_11)"/>
<path d="M89.0901 105.489H89.1461C103.741 105.764 134.046 105.489 138.888 105.489H138.889C140.349 105.489 141.758 105.484 142.922 105.618C144.093 105.753 145.515 106.073 146.701 107.101C147.925 108.161 148.443 109.572 148.695 110.89C148.938 112.158 148.998 113.691 149 115.427C149.282 122.408 149.001 137.165 149.001 143.632C149.001 145.137 149.038 146.599 148.96 147.674C148.884 148.724 148.667 150.306 147.452 151.532C146.259 152.736 144.68 153.014 143.536 153.129C142.323 153.251 140.735 153.247 138.888 153.247H89.0901C87.5061 153.247 86.0231 153.062 84.7621 152.487C83.3591 151.847 82.3991 150.8 81.8831 149.492C81.4321 148.349 81.3861 147.16 81.3881 146.292C81.3891 145.833 81.4061 145.355 81.4201 144.927C81.4351 144.48 81.4481 144.059 81.4481 143.632V115.604C81.3381 113.707 81.3371 112.132 81.5061 110.854C81.6741 109.586 82.0571 108.207 83.0681 107.131C84.1461 105.984 85.4771 105.658 86.4531 105.549C87.3131 105.452 88.3891 105.489 89.0901 105.489Z" fill="url(#paint3_linear_16_11)" stroke="white" stroke-width="6"/>
<path d="M91 117.5L114.5 135.5L138 117.5" stroke="white" stroke-width="6" stroke-linecap="round"/>
<path d="M176.145 78.6231V51.3501H183.709V78.6231H176.145ZM179.945 47.8351C178.821 47.8351 177.856 47.4621 177.051 46.7161C176.258 45.9591 175.861 45.0531 175.861 43.9991C175.861 42.9581 176.258 42.0641 177.051 41.3181C177.856 40.5611 178.821 40.1821 179.945 40.1821C181.07 40.1821 182.028 40.5611 182.822 41.3181C183.626 42.0641 184.029 42.9581 184.029 43.9991C184.029 45.0531 183.626 45.9591 182.822 46.7161C182.028 47.4621 181.07 47.8351 179.945 47.8351ZM202.055 89.4191C199.605 89.4191 197.504 89.0811 195.752 88.4061C194.012 87.7441 192.627 86.8381 191.597 85.6901C190.567 84.5421 189.899 83.2511 189.591 81.8191L196.587 80.8781C196.8 81.4231 197.137 81.9322 197.599 82.4052C198.06 82.8782 198.67 83.2571 199.428 83.5411C200.197 83.8371 201.132 83.9851 202.233 83.9851C203.878 83.9851 205.234 83.5831 206.299 82.7781C207.376 81.9851 207.915 80.6531 207.915 78.7831V73.7941H207.595C207.264 74.5511 206.767 75.2671 206.104 75.9421C205.441 76.6171 204.589 77.1671 203.547 77.5931C202.505 78.0191 201.262 78.2321 199.818 78.2321C197.77 78.2321 195.906 77.7591 194.225 76.8121C192.556 75.8531 191.224 74.3911 190.23 72.4261C189.248 70.4501 188.756 67.9521 188.756 64.9331C188.756 61.8441 189.259 59.2631 190.266 57.1921C191.272 55.1201 192.609 53.5701 194.278 52.5401C195.959 51.5101 197.8 50.9951 199.8 50.9951C201.327 50.9951 202.606 51.2561 203.636 51.7761C204.665 52.2851 205.494 52.9251 206.121 53.6941C206.761 54.4521 207.252 55.1972 207.595 55.9312H207.879V51.3501H215.39V78.8891C215.39 81.2091 214.822 83.1511 213.685 84.7131C212.549 86.2761 210.975 87.4481 208.962 88.2291C206.962 89.0221 204.66 89.4191 202.055 89.4191ZM202.215 72.5511C203.434 72.5511 204.464 72.2491 205.305 71.6451C206.157 71.0301 206.808 70.1542 207.258 69.0172C207.719 67.8692 207.95 66.4961 207.95 64.8981C207.95 63.3001 207.725 61.9151 207.276 60.7431C206.826 59.5591 206.175 58.6422 205.322 57.9911C204.47 57.3401 203.434 57.0141 202.215 57.0141C200.972 57.0141 199.925 57.3521 199.072 58.0261C198.22 58.6891 197.575 59.6131 197.137 60.7961C196.699 61.9801 196.48 63.3471 196.48 64.8981C196.48 66.4721 196.699 67.8341 197.137 68.9821C197.587 70.1181 198.232 71.0001 199.072 71.6271C199.925 72.2431 200.972 72.5511 202.215 72.5511ZM221.409 78.6231V51.3501H228.973V78.6231H221.409ZM225.209 47.8351C224.084 47.8351 223.12 47.4621 222.315 46.7161C221.522 45.9591 221.125 45.0531 221.125 43.9991C221.125 42.9581 221.522 42.0641 222.315 41.3181C223.12 40.5611 224.084 40.1821 225.209 40.1821C226.333 40.1821 227.292 40.5611 228.085 41.3181C228.89 42.0641 229.293 42.9581 229.293 43.9991C229.293 45.0531 228.89 45.9591 228.085 46.7161C227.292 47.4621 226.333 47.8351 225.209 47.8351ZM245.082 79.0671C243.01 79.0671 241.134 78.5341 239.453 77.4691C237.784 76.3921 236.459 74.8111 235.476 72.7281C234.505 70.6332 234.02 68.0641 234.02 65.0221C234.02 61.8971 234.523 59.2991 235.529 57.2271C236.535 55.1441 237.873 53.5881 239.542 52.5581C241.223 51.5161 243.064 50.9951 245.064 50.9951C246.591 50.9951 247.864 51.2561 248.882 51.7761C249.911 52.2851 250.74 52.9251 251.367 53.6941C252.007 54.4521 252.492 55.1972 252.823 55.9312H253.054V42.2591H260.6V78.6231H253.143V74.2551H252.823C252.468 75.0131 251.965 75.7641 251.314 76.5101C250.675 77.2441 249.84 77.8541 248.811 78.3391C247.793 78.8241 246.55 79.0671 245.082 79.0671ZM247.479 73.0481C248.698 73.0481 249.728 72.7161 250.568 72.0531C251.421 71.3791 252.072 70.4381 252.521 69.2301C252.983 68.0231 253.214 66.6081 253.214 64.9871C253.214 63.3651 252.989 61.9561 252.539 60.7611C252.089 59.5651 251.438 58.6422 250.586 57.9911C249.734 57.3401 248.698 57.0141 247.479 57.0141C246.236 57.0141 245.188 57.3521 244.336 58.0261C243.484 58.7011 242.839 59.6361 242.401 60.8321C241.963 62.0271 241.744 63.4121 241.744 64.9871C241.744 66.5731 241.963 67.9761 242.401 69.1951C242.851 70.4021 243.496 71.3491 244.336 72.0361C245.188 72.7101 246.236 73.0481 247.479 73.0481ZM289.511 59.1271L282.586 59.5531C282.468 58.9621 282.213 58.4291 281.823 57.9551C281.432 57.4701 280.917 57.0851 280.278 56.8011C279.651 56.5051 278.899 56.3571 278.023 56.3571C276.851 56.3571 275.863 56.6061 275.058 57.1031C274.253 57.5882 273.85 58.2402 273.85 59.0562C273.85 59.7072 274.111 60.2581 274.632 60.7081C275.153 61.1571 276.046 61.5181 277.313 61.7911L282.249 62.7851C284.9 63.3291 286.877 64.2051 288.179 65.4131C289.481 66.6201 290.132 68.2061 290.132 70.1711C290.132 71.9591 289.606 73.5271 288.552 74.8771C287.511 76.2261 286.078 77.2801 284.255 78.0371C282.444 78.7831 280.355 79.1561 277.988 79.1561C274.377 79.1561 271.501 78.4041 269.358 76.9011C267.228 75.3861 265.979 73.3261 265.612 70.7221L273.051 70.3311C273.276 71.4321 273.821 72.2721 274.685 72.8521C275.549 73.4211 276.656 73.7051 278.005 73.7051C279.331 73.7051 280.396 73.4501 281.201 72.9411C282.018 72.4201 282.432 71.7521 282.444 70.9351C282.432 70.2481 282.142 69.6861 281.574 69.2481C281.006 68.7981 280.13 68.4551 278.946 68.2181L274.223 67.2771C271.56 66.7441 269.577 65.8211 268.275 64.5071C266.985 63.1931 266.34 61.5181 266.34 59.4821C266.34 57.7311 266.813 56.2211 267.76 54.9551C268.719 53.6881 270.063 52.7121 271.791 52.0251C273.531 51.3381 275.567 50.9951 277.899 50.9951C281.343 50.9951 284.054 51.7231 286.031 53.1791C288.02 54.6351 289.18 56.6181 289.511 59.1271ZM307.218 79.1561C304.424 79.1561 302.021 78.5641 300.009 77.3801C298.009 76.1851 296.47 74.5271 295.393 72.4091C294.327 70.2901 293.795 67.8511 293.795 65.0931C293.795 62.3001 294.333 59.8491 295.41 57.7421C296.499 55.6241 298.044 53.9721 300.045 52.7891C302.045 51.5931 304.424 50.9951 307.182 50.9951C309.562 50.9951 311.645 51.4271 313.432 52.2911C315.22 53.1551 316.634 54.3692 317.676 55.9312C318.718 57.4942 319.292 59.3291 319.398 61.4361H312.26C312.059 60.0741 311.527 58.9791 310.662 58.1511C309.81 57.3101 308.692 56.8901 307.307 56.8901C306.135 56.8901 305.111 57.2101 304.235 57.8491C303.371 58.4761 302.696 59.3941 302.211 60.6011C301.725 61.8081 301.483 63.2701 301.483 64.9871C301.483 66.7271 301.72 68.2061 302.193 69.4261C302.678 70.6451 303.359 71.5741 304.235 72.2131C305.111 72.8521 306.135 73.1721 307.307 73.1721C308.171 73.1721 308.946 72.9941 309.633 72.6391C310.331 72.2841 310.905 71.7691 311.355 71.0951C311.817 70.4081 312.118 69.5851 312.26 68.6271H319.398C319.28 70.7101 318.712 72.5451 317.694 74.1311C316.688 75.7051 315.297 76.9361 313.521 77.8241C311.746 78.7121 309.644 79.1561 307.218 79.1561ZM324.241 78.6231V51.3501H331.574V56.1091H331.858C332.355 54.4161 333.19 53.1381 334.362 52.2741C335.534 51.3981 336.883 50.9601 338.41 50.9601C338.789 50.9601 339.197 50.9831 339.635 51.0311C340.073 51.0781 340.458 51.1431 340.789 51.2261V57.9381C340.434 57.8311 339.943 57.7361 339.316 57.6541C338.688 57.5711 338.114 57.5291 337.593 57.5291C336.481 57.5291 335.486 57.7721 334.61 58.2571C333.746 58.7311 333.06 59.3941 332.551 60.2461C332.054 61.0981 331.805 62.0811 331.805 63.1931V78.6231H324.241ZM351.696 79.1381C349.956 79.1381 348.405 78.8361 347.044 78.2321C345.683 77.6171 344.605 76.7111 343.812 75.5161C343.031 74.3081 342.64 72.8051 342.64 71.0061C342.64 69.4911 342.919 68.2181 343.475 67.1881C344.031 66.1591 344.789 65.3301 345.748 64.7031C346.706 64.0751 347.796 63.6021 349.015 63.2821C350.246 62.9631 351.536 62.7381 352.885 62.6071C354.472 62.4421 355.75 62.2881 356.721 62.1461C357.691 61.9921 358.396 61.7671 358.834 61.4711C359.272 61.1751 359.491 60.7371 359.491 60.1571V60.0511C359.491 58.9261 359.135 58.0561 358.425 57.4411C357.727 56.8251 356.733 56.5172 355.442 56.5172C354.081 56.5172 352.998 56.8191 352.193 57.4231C351.388 58.0151 350.855 58.7601 350.595 59.6601L343.599 59.0921C343.954 57.4351 344.653 56.0021 345.694 54.7951C346.736 53.5761 348.08 52.6411 349.725 51.9901C351.382 51.3271 353.3 50.9951 355.478 50.9951C356.993 50.9951 358.443 51.1731 359.828 51.5281C361.225 51.8831 362.462 52.4331 363.539 53.1791C364.628 53.9251 365.486 54.8842 366.113 56.0562C366.741 57.2162 367.055 58.6061 367.055 60.2281V78.6231H359.881V74.8411H359.668C359.23 75.6931 358.644 76.4451 357.91 77.0961C357.176 77.7351 356.295 78.2381 355.265 78.6051C354.235 78.9601 353.045 79.1381 351.696 79.1381ZM353.862 73.9182C354.975 73.9182 355.957 73.6991 356.809 73.2611C357.662 72.8111 358.331 72.2071 358.816 71.4501C359.301 70.6921 359.544 69.8341 359.544 68.8751V65.9811C359.307 66.1351 358.982 66.2771 358.567 66.4071C358.165 66.5261 357.709 66.6381 357.2 66.7441C356.691 66.8391 356.182 66.9281 355.673 67.0111C355.164 67.0821 354.702 67.1471 354.288 67.2061C353.4 67.3361 352.625 67.5441 351.962 67.8281C351.299 68.1121 350.784 68.4961 350.417 68.9821C350.05 69.4551 349.867 70.0471 349.867 70.7571C349.867 71.7871 350.24 72.5741 350.986 73.1191C351.743 73.6511 352.702 73.9182 353.862 73.9182ZM372.923 88.8501V51.3501H380.38V55.9312H380.718C381.049 55.1972 381.528 54.4521 382.156 53.6941C382.795 52.9251 383.624 52.2851 384.642 51.7761C385.671 51.2561 386.95 50.9951 388.477 50.9951C390.465 50.9951 392.3 51.5161 393.981 52.5581C395.662 53.5881 397.005 55.1441 398.012 57.2271C399.018 59.2991 399.521 61.8971 399.521 65.0221C399.521 68.0641 399.03 70.6332 398.047 72.7281C397.076 74.8111 395.751 76.3921 394.07 77.4691C392.401 78.5341 390.53 79.0671 388.459 79.0671C386.991 79.0671 385.742 78.8241 384.713 78.3391C383.695 77.8541 382.86 77.2441 382.209 76.5101C381.558 75.7641 381.061 75.0131 380.718 74.2551H380.487V88.8501H372.923ZM380.327 64.9871C380.327 66.6081 380.552 68.0231 381.002 69.2301C381.451 70.4381 382.102 71.3791 382.955 72.0531C383.807 72.7161 384.843 73.0481 386.062 73.0481C387.293 73.0481 388.335 72.7101 389.187 72.0361C390.039 71.3491 390.684 70.4021 391.122 69.1951C391.572 67.9761 391.797 66.5731 391.797 64.9871C391.797 63.4121 391.578 62.0271 391.14 60.8321C390.702 59.6361 390.057 58.7011 389.205 58.0261C388.352 57.3521 387.305 57.0141 386.062 57.0141C384.831 57.0141 383.789 57.3401 382.937 57.9911C382.097 58.6422 381.451 59.5651 381.002 60.7611C380.552 61.9561 380.327 63.3651 380.327 64.9871ZM416.992 79.1561C414.187 79.1561 411.772 78.5881 409.748 77.4511C407.736 76.3031 406.185 74.6811 405.096 72.5861C404.007 70.4791 403.463 67.9871 403.463 65.1111C403.463 62.3061 404.007 59.8431 405.096 57.7251C406.185 55.6061 407.718 53.9541 409.695 52.7711C411.683 51.5871 414.015 50.9951 416.691 50.9951C418.49 50.9951 420.165 51.2851 421.715 51.8651C423.278 52.4331 424.639 53.2921 425.799 54.4401C426.971 55.5881 427.883 57.0321 428.534 58.7721C429.185 60.5001 429.51 62.5251 429.51 64.8451V66.9221H406.481V62.2351H422.39C422.39 61.1461 422.153 60.1811 421.68 59.3401C421.206 58.5001 420.549 57.8431 419.709 57.3691C418.88 56.8841 417.916 56.6422 416.815 56.6422C415.667 56.6422 414.649 56.9081 413.761 57.4411C412.885 57.9611 412.198 58.6661 411.701 59.5531C411.204 60.4291 410.95 61.4061 410.938 62.4831V66.9401C410.938 68.2891 411.186 69.4551 411.683 70.4381C412.192 71.4201 412.909 72.1781 413.832 72.7101C414.755 73.2431 415.85 73.5091 417.117 73.5091C417.957 73.5091 418.727 73.3911 419.425 73.1541C420.123 72.9181 420.721 72.5621 421.218 72.0891C421.715 71.6151 422.094 71.0351 422.355 70.3491L429.35 70.8111C428.995 72.4911 428.267 73.9591 427.166 75.2141C426.077 76.4571 424.669 77.4271 422.941 78.1261C421.224 78.8121 419.241 79.1561 416.992 79.1561ZM434.446 78.6231V51.3501H441.779V56.1091H442.063C442.561 54.4161 443.395 53.1381 444.567 52.2741C445.739 51.3981 447.088 50.9601 448.615 50.9601C448.994 50.9601 449.402 50.9831 449.84 51.0311C450.278 51.0781 450.663 51.1431 450.994 51.2261V57.9381C450.639 57.8311 450.148 57.7361 449.521 57.6541C448.893 57.5711 448.319 57.5291 447.798 57.5291C446.686 57.5291 445.691 57.7721 444.816 58.2571C443.951 58.7311 443.265 59.3941 442.756 60.2461C442.259 61.0981 442.01 62.0811 442.01 63.1931V78.6231H434.446ZM180.567 129.085C179.395 129.085 178.389 128.67 177.548 127.842C176.72 127.001 176.305 125.995 176.305 124.823C176.305 123.663 176.72 122.669 177.548 121.84C178.389 121.012 179.395 120.597 180.567 120.597C181.703 120.597 182.697 121.012 183.55 121.84C184.402 122.669 184.828 123.663 184.828 124.823C184.828 125.605 184.627 126.321 184.224 126.972C183.834 127.611 183.319 128.126 182.68 128.517C182.04 128.895 181.336 129.085 180.567 129.085ZM203.36 129.156C200.567 129.156 198.164 128.564 196.152 127.38C194.151 126.185 192.612 124.527 191.535 122.409C190.47 120.29 189.937 117.851 189.937 115.093C189.937 112.3 190.476 109.849 191.553 107.742C192.642 105.624 194.187 103.972 196.187 102.789C198.188 101.593 200.567 100.995 203.325 100.995C205.704 100.995 207.788 101.427 209.575 102.291C211.362 103.155 212.777 104.369 213.819 105.931C214.86 107.494 215.434 109.329 215.541 111.436H208.403C208.202 110.074 207.669 108.979 206.805 108.151C205.953 107.31 204.834 106.89 203.449 106.89C202.277 106.89 201.253 107.21 200.377 107.849C199.513 108.476 198.839 109.394 198.353 110.601C197.868 111.808 197.625 113.27 197.625 114.987C197.625 116.727 197.862 118.206 198.336 119.426C198.821 120.645 199.502 121.574 200.377 122.213C201.253 122.852 202.277 123.172 203.449 123.172C204.313 123.172 205.089 122.994 205.775 122.639C206.474 122.284 207.048 121.769 207.498 121.095C207.959 120.408 208.261 119.585 208.403 118.627H215.541C215.422 120.71 214.854 122.545 213.836 124.131C212.83 125.705 211.439 126.936 209.664 127.824C207.888 128.712 205.787 129.156 203.36 129.156ZM232.706 129.156C229.948 129.156 227.563 128.57 225.551 127.398C223.55 126.214 222.005 124.569 220.916 122.462C219.827 120.343 219.283 117.887 219.283 115.093C219.283 112.276 219.827 109.814 220.916 107.707C222.005 105.588 223.55 103.943 225.551 102.771C227.563 101.587 229.948 100.995 232.706 100.995C235.464 100.995 237.843 101.587 239.844 102.771C241.856 103.943 243.407 105.588 244.496 107.707C245.585 109.814 246.129 112.276 246.129 115.093C246.129 117.887 245.585 120.343 244.496 122.462C243.407 124.569 241.856 126.214 239.844 127.398C237.843 128.57 235.464 129.156 232.706 129.156ZM232.742 123.296C233.996 123.296 235.044 122.941 235.884 122.231C236.725 121.509 237.358 120.526 237.784 119.284C238.222 118.041 238.441 116.626 238.441 115.04C238.441 113.454 238.222 112.039 237.784 110.796C237.358 109.553 236.725 108.571 235.884 107.849C235.044 107.127 233.996 106.766 232.742 106.766C231.475 106.766 230.41 107.127 229.546 107.849C228.693 108.571 228.048 109.553 227.61 110.796C227.184 112.039 226.971 113.454 226.971 115.04C226.971 116.626 227.184 118.041 227.61 119.284C228.048 120.526 228.693 121.509 229.546 122.231C230.41 122.941 231.475 123.296 232.742 123.296ZM251.048 128.623V101.35H258.257V106.162H258.576C259.144 104.564 260.091 103.303 261.417 102.38C262.743 101.457 264.329 100.995 266.176 100.995C268.046 100.995 269.638 101.463 270.952 102.398C272.266 103.321 273.142 104.576 273.58 106.162H273.864C274.42 104.6 275.426 103.351 276.882 102.416C278.35 101.469 280.084 100.995 282.085 100.995C284.63 100.995 286.695 101.806 288.281 103.428C289.879 105.038 290.678 107.322 290.678 110.281V128.623H283.132V111.773C283.132 110.258 282.73 109.121 281.925 108.364C281.12 107.606 280.114 107.227 278.906 107.227C277.533 107.227 276.462 107.665 275.693 108.541C274.923 109.405 274.539 110.548 274.539 111.968V128.623H267.205V111.613C267.205 110.276 266.821 109.21 266.051 108.417C265.294 107.624 264.294 107.227 263.051 107.227C262.21 107.227 261.453 107.441 260.778 107.867C260.115 108.281 259.588 108.867 259.198 109.624C258.807 110.37 258.612 111.246 258.612 112.252V128.623H251.048Z" fill="#401857"/>
<defs>
<linearGradient id="paint0_linear_16_11" x1="54.971" y1="23.0941" x2="146.971" y2="149.094" gradientUnits="userSpaceOnUse">
<stop stop-color="#515BD4"/>
<stop offset="0.327247" stop-color="#8134AF"/>
<stop offset="0.762508" stop-color="#DD2A7B"/>
<stop offset="1" stop-color="#F58529"/>
</linearGradient>
<linearGradient id="paint1_linear_16_11" x1="64.971" y1="56.594" x2="122.971" y2="134.094" gradientUnits="userSpaceOnUse">
<stop stop-color="#515BD4"/>
<stop offset="0.236066" stop-color="#8134AF"/>
<stop offset="0.871913" stop-color="#DD2A7B"/>
</linearGradient>
<linearGradient id="paint2_linear_16_11" x1="78.471" y1="42.594" x2="100.471" y2="77.594" gradientUnits="userSpaceOnUse">
<stop stop-color="#515BD4"/>
<stop offset="0.644902" stop-color="#8134AF"/>
</linearGradient>
<linearGradient id="paint3_linear_16_11" x1="62.4711" y1="92.5939" x2="146.971" y2="150.094" gradientUnits="userSpaceOnUse">
<stop offset="0.125301" stop-color="#8134AF"/>
<stop offset="0.568368" stop-color="#DD2A7B"/>
<stop offset="1" stop-color="#F58529"/>
</linearGradient>
</defs>
</svg>
