<svg width="1200" height="1200" viewBox="0 0 1200 1200" fill="none" xmlns="http://www.w3.org/2000/svg">
<rect width="1200" height="1200" fill="white"/>
<path d="M383 655.445L416.5 618.457M416.5 618.457C404.5 607.445 392.5 575.956 416.5 549.956C420.5 544.444 442 528.445 469.5 537.957C495.562 546.972 501.833 572.29 501.5 583.956C501.5 590.456 500.5 605.445 489.5 616.956C481.615 625.207 451.5 644.458 416.5 618.457Z" stroke="url(#paint0_linear_1283_8800)" stroke-width="14" stroke-linecap="round"/>
<path d="M451.822 602C461.17 602 466.198 604.703 469.102 607.312C470.655 608.708 471.856 610.31 472.803 611.978L469.59 615.495C466.771 616.915 462.26 618.69 457.108 619.681C451.067 620.843 445.069 620.756 440.079 618.733C434.533 616.485 432.18 614.432 431.298 613.417C432.314 610.531 437.087 602 451.822 602Z" stroke="url(#paint1_linear_1283_8800)" stroke-width="20" stroke-linecap="round"/>
<circle cx="453" cy="572" r="15" fill="url(#paint2_linear_1283_8800)"/>
<path d="M453.09 619.489H453.146C467.741 619.764 498.046 619.489 502.888 619.489H502.889C504.349 619.489 505.758 619.484 506.922 619.618C508.093 619.753 509.515 620.073 510.701 621.101C511.925 622.161 512.443 623.572 512.695 624.89C512.938 626.158 512.998 627.691 513 629.427C513.282 636.408 513.001 651.165 513.001 657.632C513.001 659.137 513.038 660.599 512.96 661.674C512.884 662.724 512.667 664.306 511.452 665.532C510.259 666.736 508.68 667.014 507.536 667.129C506.323 667.251 504.735 667.247 502.888 667.247H453.09C451.506 667.247 450.023 667.062 448.762 666.487C447.359 665.847 446.399 664.8 445.883 663.492C445.432 662.349 445.386 661.16 445.388 660.292C445.389 659.833 445.406 659.355 445.42 658.927C445.435 658.48 445.448 658.059 445.448 657.632V629.604C445.338 627.707 445.337 626.132 445.506 624.854C445.674 623.586 446.057 622.207 447.068 621.131C448.146 619.984 449.477 619.658 450.453 619.549C451.313 619.452 452.389 619.489 453.09 619.489Z" fill="url(#paint3_linear_1283_8800)" stroke="white" stroke-width="6"/>
<path d="M455 631.5L478.5 649.5L502 631.5" stroke="white" stroke-width="6" stroke-linecap="round"/>
<path d="M540.145 592.623V565.35H547.709V592.623H540.145ZM543.945 561.835C542.821 561.835 541.856 561.462 541.051 560.716C540.258 559.959 539.861 559.053 539.861 557.999C539.861 556.958 540.258 556.064 541.051 555.318C541.856 554.561 542.821 554.182 543.945 554.182C545.07 554.182 546.028 554.561 546.822 555.318C547.626 556.064 548.029 556.958 548.029 557.999C548.029 559.053 547.626 559.959 546.822 560.716C546.028 561.462 545.07 561.835 543.945 561.835ZM566.055 603.419C563.605 603.419 561.504 603.081 559.752 602.406C558.012 601.744 556.627 600.838 555.597 599.69C554.567 598.542 553.899 597.251 553.591 595.819L560.587 594.878C560.8 595.423 561.137 595.932 561.599 596.405C562.06 596.878 562.67 597.257 563.428 597.541C564.197 597.837 565.132 597.985 566.233 597.985C567.878 597.985 569.234 597.583 570.299 596.778C571.376 595.985 571.915 594.653 571.915 592.783V587.794H571.595C571.264 588.551 570.767 589.267 570.104 589.942C569.441 590.617 568.589 591.167 567.547 591.593C566.505 592.019 565.262 592.232 563.818 592.232C561.77 592.232 559.906 591.759 558.225 590.812C556.556 589.853 555.224 588.391 554.23 586.426C553.248 584.45 552.756 581.952 552.756 578.933C552.756 575.844 553.259 573.263 554.266 571.192C555.272 569.12 556.609 567.57 558.278 566.54C559.959 565.51 561.8 564.995 563.8 564.995C565.327 564.995 566.606 565.256 567.636 565.776C568.665 566.285 569.494 566.925 570.121 567.694C570.761 568.452 571.252 569.197 571.595 569.931H571.879V565.35H579.39V592.889C579.39 595.209 578.822 597.151 577.685 598.713C576.549 600.276 574.975 601.448 572.962 602.229C570.962 603.022 568.66 603.419 566.055 603.419ZM566.215 586.551C567.434 586.551 568.464 586.249 569.305 585.645C570.157 585.03 570.808 584.154 571.258 583.017C571.719 581.869 571.95 580.496 571.95 578.898C571.95 577.3 571.725 575.915 571.276 574.743C570.826 573.559 570.175 572.642 569.322 571.991C568.47 571.34 567.434 571.014 566.215 571.014C564.972 571.014 563.925 571.352 563.072 572.026C562.22 572.689 561.575 573.613 561.137 574.796C560.699 575.98 560.48 577.347 560.48 578.898C560.48 580.472 560.699 581.834 561.137 582.982C561.587 584.118 562.232 585 563.072 585.627C563.925 586.243 564.972 586.551 566.215 586.551ZM585.409 592.623V565.35H592.973V592.623H585.409ZM589.209 561.835C588.084 561.835 587.12 561.462 586.315 560.716C585.522 559.959 585.125 559.053 585.125 557.999C585.125 556.958 585.522 556.064 586.315 555.318C587.12 554.561 588.084 554.182 589.209 554.182C590.333 554.182 591.292 554.561 592.085 555.318C592.89 556.064 593.293 556.958 593.293 557.999C593.293 559.053 592.89 559.959 592.085 560.716C591.292 561.462 590.333 561.835 589.209 561.835ZM609.082 593.067C607.01 593.067 605.134 592.534 603.453 591.469C601.784 590.392 600.459 588.811 599.476 586.728C598.505 584.633 598.02 582.064 598.02 579.022C598.02 575.897 598.523 573.299 599.529 571.227C600.535 569.144 601.873 567.588 603.542 566.558C605.223 565.516 607.064 564.995 609.064 564.995C610.591 564.995 611.864 565.256 612.882 565.776C613.911 566.285 614.74 566.925 615.367 567.694C616.007 568.452 616.492 569.197 616.823 569.931H617.054V556.259H624.6V592.623H617.143V588.255H616.823C616.468 589.013 615.965 589.764 615.314 590.51C614.675 591.244 613.84 591.854 612.811 592.339C611.793 592.824 610.55 593.067 609.082 593.067ZM611.479 587.048C612.698 587.048 613.728 586.716 614.568 586.053C615.421 585.379 616.072 584.438 616.521 583.23C616.983 582.023 617.214 580.608 617.214 578.987C617.214 577.365 616.989 575.956 616.539 574.761C616.089 573.565 615.438 572.642 614.586 571.991C613.734 571.34 612.698 571.014 611.479 571.014C610.236 571.014 609.188 571.352 608.336 572.026C607.484 572.701 606.839 573.636 606.401 574.832C605.963 576.027 605.744 577.412 605.744 578.987C605.744 580.573 605.963 581.976 606.401 583.195C606.851 584.402 607.496 585.349 608.336 586.036C609.188 586.71 610.236 587.048 611.479 587.048ZM653.511 573.127L646.586 573.553C646.468 572.962 646.213 572.429 645.823 571.955C645.432 571.47 644.917 571.085 644.278 570.801C643.651 570.505 642.899 570.357 642.023 570.357C640.851 570.357 639.863 570.606 639.058 571.103C638.253 571.588 637.85 572.24 637.85 573.056C637.85 573.707 638.111 574.258 638.632 574.708C639.153 575.157 640.046 575.518 641.313 575.791L646.249 576.785C648.9 577.329 650.877 578.205 652.179 579.413C653.481 580.62 654.132 582.206 654.132 584.171C654.132 585.959 653.606 587.527 652.552 588.877C651.511 590.226 650.078 591.28 648.255 592.037C646.444 592.783 644.355 593.156 641.988 593.156C638.377 593.156 635.501 592.404 633.358 590.901C631.228 589.386 629.979 587.326 629.612 584.722L637.051 584.331C637.276 585.432 637.821 586.272 638.685 586.852C639.549 587.421 640.656 587.705 642.005 587.705C643.331 587.705 644.396 587.45 645.201 586.941C646.018 586.42 646.432 585.752 646.444 584.935C646.432 584.248 646.142 583.686 645.574 583.248C645.006 582.798 644.13 582.455 642.946 582.218L638.223 581.277C635.56 580.744 633.577 579.821 632.275 578.507C630.985 577.193 630.34 575.518 630.34 573.482C630.34 571.731 630.813 570.221 631.76 568.955C632.719 567.688 634.063 566.712 635.791 566.025C637.531 565.338 639.567 564.995 641.899 564.995C645.343 564.995 648.054 565.723 650.031 567.179C652.02 568.635 653.18 570.618 653.511 573.127ZM671.218 593.156C668.424 593.156 666.021 592.564 664.009 591.38C662.009 590.185 660.47 588.527 659.393 586.409C658.327 584.29 657.795 581.851 657.795 579.093C657.795 576.3 658.333 573.849 659.41 571.742C660.499 569.624 662.044 567.972 664.045 566.789C666.045 565.593 668.424 564.995 671.182 564.995C673.562 564.995 675.645 565.427 677.432 566.291C679.22 567.155 680.634 568.369 681.676 569.931C682.718 571.494 683.292 573.329 683.398 575.436H676.26C676.059 574.074 675.527 572.979 674.662 572.151C673.81 571.31 672.692 570.89 671.307 570.89C670.135 570.89 669.111 571.21 668.235 571.849C667.371 572.476 666.696 573.394 666.211 574.601C665.725 575.808 665.483 577.27 665.483 578.987C665.483 580.727 665.72 582.206 666.193 583.426C666.678 584.645 667.359 585.574 668.235 586.213C669.111 586.852 670.135 587.172 671.307 587.172C672.171 587.172 672.946 586.994 673.633 586.639C674.331 586.284 674.905 585.769 675.355 585.095C675.817 584.408 676.118 583.585 676.26 582.627H683.398C683.28 584.71 682.712 586.545 681.694 588.131C680.688 589.705 679.297 590.936 677.521 591.824C675.746 592.712 673.644 593.156 671.218 593.156ZM688.241 592.623V565.35H695.574V570.109H695.858C696.355 568.416 697.19 567.138 698.362 566.274C699.534 565.398 700.883 564.96 702.41 564.96C702.789 564.96 703.197 564.983 703.635 565.031C704.073 565.078 704.458 565.143 704.789 565.226V571.938C704.434 571.831 703.943 571.736 703.316 571.654C702.688 571.571 702.114 571.529 701.593 571.529C700.481 571.529 699.486 571.772 698.61 572.257C697.746 572.731 697.06 573.394 696.551 574.246C696.054 575.098 695.805 576.081 695.805 577.193V592.623H688.241ZM715.696 593.138C713.956 593.138 712.405 592.836 711.044 592.232C709.683 591.617 708.605 590.711 707.812 589.516C707.031 588.308 706.64 586.805 706.64 585.006C706.64 583.491 706.919 582.218 707.475 581.188C708.031 580.159 708.789 579.33 709.748 578.703C710.706 578.075 711.796 577.602 713.015 577.282C714.246 576.963 715.536 576.738 716.885 576.607C718.472 576.442 719.75 576.288 720.721 576.146C721.691 575.992 722.396 575.767 722.834 575.471C723.272 575.175 723.491 574.737 723.491 574.157V574.051C723.491 572.926 723.135 572.056 722.425 571.441C721.727 570.825 720.733 570.517 719.442 570.517C718.081 570.517 716.998 570.819 716.193 571.423C715.388 572.015 714.855 572.76 714.595 573.66L707.599 573.092C707.954 571.435 708.653 570.002 709.694 568.795C710.736 567.576 712.08 566.641 713.725 565.99C715.382 565.327 717.3 564.995 719.478 564.995C720.993 564.995 722.443 565.173 723.828 565.528C725.225 565.883 726.462 566.433 727.539 567.179C728.628 567.925 729.486 568.884 730.113 570.056C730.741 571.216 731.055 572.606 731.055 574.228V592.623H723.881V588.841H723.668C723.23 589.693 722.644 590.445 721.91 591.096C721.176 591.735 720.295 592.238 719.265 592.605C718.235 592.96 717.045 593.138 715.696 593.138ZM717.862 587.918C718.975 587.918 719.957 587.699 720.809 587.261C721.662 586.811 722.331 586.207 722.816 585.45C723.301 584.692 723.544 583.834 723.544 582.875V579.981C723.307 580.135 722.982 580.277 722.567 580.407C722.165 580.526 721.709 580.638 721.2 580.744C720.691 580.839 720.182 580.928 719.673 581.011C719.164 581.082 718.702 581.147 718.288 581.206C717.4 581.336 716.625 581.544 715.962 581.828C715.299 582.112 714.784 582.496 714.417 582.982C714.05 583.455 713.867 584.047 713.867 584.757C713.867 585.787 714.24 586.574 714.986 587.119C715.743 587.651 716.702 587.918 717.862 587.918ZM736.923 602.85V565.35H744.38V569.931H744.718C745.049 569.197 745.528 568.452 746.156 567.694C746.795 566.925 747.624 566.285 748.642 565.776C749.671 565.256 750.95 564.995 752.477 564.995C754.465 564.995 756.3 565.516 757.981 566.558C759.662 567.588 761.005 569.144 762.012 571.227C763.018 573.299 763.521 575.897 763.521 579.022C763.521 582.064 763.03 584.633 762.047 586.728C761.076 588.811 759.751 590.392 758.07 591.469C756.401 592.534 754.53 593.067 752.459 593.067C750.991 593.067 749.742 592.824 748.713 592.339C747.695 591.854 746.86 591.244 746.209 590.51C745.558 589.764 745.061 589.013 744.718 588.255H744.487V602.85H736.923ZM744.327 578.987C744.327 580.608 744.552 582.023 745.002 583.23C745.451 584.438 746.102 585.379 746.955 586.053C747.807 586.716 748.843 587.048 750.062 587.048C751.293 587.048 752.335 586.71 753.187 586.036C754.039 585.349 754.684 584.402 755.122 583.195C755.572 581.976 755.797 580.573 755.797 578.987C755.797 577.412 755.578 576.027 755.14 574.832C754.702 573.636 754.057 572.701 753.205 572.026C752.352 571.352 751.305 571.014 750.062 571.014C748.831 571.014 747.789 571.34 746.937 571.991C746.097 572.642 745.451 573.565 745.002 574.761C744.552 575.956 744.327 577.365 744.327 578.987ZM780.992 593.156C778.187 593.156 775.772 592.588 773.748 591.451C771.736 590.303 770.185 588.681 769.096 586.586C768.007 584.479 767.463 581.987 767.463 579.111C767.463 576.306 768.007 573.843 769.096 571.725C770.185 569.606 771.718 567.954 773.695 566.771C775.683 565.587 778.015 564.995 780.691 564.995C782.49 564.995 784.165 565.285 785.715 565.865C787.278 566.433 788.639 567.292 789.799 568.44C790.971 569.588 791.883 571.032 792.534 572.772C793.185 574.5 793.51 576.525 793.51 578.845V580.922H770.481V576.235H786.39C786.39 575.146 786.153 574.181 785.68 573.34C785.206 572.5 784.549 571.843 783.709 571.369C782.88 570.884 781.916 570.642 780.815 570.642C779.667 570.642 778.649 570.908 777.761 571.441C776.885 571.961 776.198 572.666 775.701 573.553C775.204 574.429 774.95 575.406 774.938 576.483V580.94C774.938 582.289 775.186 583.455 775.683 584.438C776.192 585.42 776.909 586.178 777.832 586.71C778.755 587.243 779.85 587.509 781.117 587.509C781.957 587.509 782.727 587.391 783.425 587.154C784.123 586.918 784.721 586.562 785.218 586.089C785.715 585.615 786.094 585.035 786.355 584.349L793.35 584.811C792.995 586.491 792.267 587.959 791.166 589.214C790.077 590.457 788.669 591.427 786.941 592.126C785.224 592.812 783.241 593.156 780.992 593.156ZM798.446 592.623V565.35H805.779V570.109H806.063C806.561 568.416 807.395 567.138 808.567 566.274C809.739 565.398 811.088 564.96 812.615 564.96C812.994 564.96 813.402 564.983 813.84 565.031C814.278 565.078 814.663 565.143 814.994 565.226V571.938C814.639 571.831 814.148 571.736 813.521 571.654C812.893 571.571 812.319 571.529 811.798 571.529C810.686 571.529 809.691 571.772 808.816 572.257C807.951 572.731 807.265 573.394 806.756 574.246C806.259 575.098 806.01 576.081 806.01 577.193V592.623H798.446ZM544.567 643.085C543.395 643.085 542.389 642.67 541.548 641.842C540.72 641.001 540.305 639.995 540.305 638.823C540.305 637.663 540.72 636.669 541.548 635.84C542.389 635.012 543.395 634.597 544.567 634.597C545.703 634.597 546.697 635.012 547.55 635.84C548.402 636.669 548.828 637.663 548.828 638.823C548.828 639.605 548.627 640.321 548.224 640.972C547.834 641.611 547.319 642.126 546.68 642.517C546.04 642.895 545.336 643.085 544.567 643.085ZM567.36 643.156C564.567 643.156 562.164 642.564 560.152 641.38C558.151 640.185 556.612 638.527 555.535 636.409C554.47 634.29 553.937 631.851 553.937 629.093C553.937 626.3 554.476 623.849 555.553 621.742C556.642 619.624 558.187 617.972 560.187 616.789C562.188 615.593 564.567 614.995 567.325 614.995C569.704 614.995 571.788 615.427 573.575 616.291C575.362 617.155 576.777 618.369 577.819 619.931C578.86 621.494 579.434 623.329 579.541 625.436H572.403C572.202 624.074 571.669 622.979 570.805 622.151C569.953 621.31 568.834 620.89 567.449 620.89C566.277 620.89 565.253 621.21 564.377 621.849C563.513 622.476 562.839 623.394 562.353 624.601C561.868 625.808 561.625 627.27 561.625 628.987C561.625 630.727 561.862 632.206 562.336 633.426C562.821 634.645 563.502 635.574 564.377 636.213C565.253 636.852 566.277 637.172 567.449 637.172C568.313 637.172 569.089 636.994 569.775 636.639C570.474 636.284 571.048 635.769 571.498 635.095C571.959 634.408 572.261 633.585 572.403 632.627H579.541C579.422 634.71 578.854 636.545 577.836 638.131C576.83 639.705 575.439 640.936 573.664 641.824C571.888 642.712 569.787 643.156 567.36 643.156ZM596.706 643.156C593.948 643.156 591.563 642.57 589.551 641.398C587.55 640.214 586.005 638.569 584.916 636.462C583.827 634.343 583.283 631.887 583.283 629.093C583.283 626.276 583.827 623.814 584.916 621.707C586.005 619.588 587.55 617.943 589.551 616.771C591.563 615.587 593.948 614.995 596.706 614.995C599.464 614.995 601.843 615.587 603.844 616.771C605.856 617.943 607.407 619.588 608.496 621.707C609.585 623.814 610.129 626.276 610.129 629.093C610.129 631.887 609.585 634.343 608.496 636.462C607.407 638.569 605.856 640.214 603.844 641.398C601.843 642.57 599.464 643.156 596.706 643.156ZM596.742 637.296C597.996 637.296 599.044 636.941 599.884 636.231C600.725 635.509 601.358 634.526 601.784 633.284C602.222 632.041 602.441 630.626 602.441 629.04C602.441 627.454 602.222 626.039 601.784 624.796C601.358 623.553 600.725 622.571 599.884 621.849C599.044 621.127 597.996 620.766 596.742 620.766C595.475 620.766 594.41 621.127 593.546 621.849C592.693 622.571 592.048 623.553 591.61 624.796C591.184 626.039 590.971 627.454 590.971 629.04C590.971 630.626 591.184 632.041 591.61 633.284C592.048 634.526 592.693 635.509 593.546 636.231C594.41 636.941 595.475 637.296 596.742 637.296ZM615.048 642.623V615.35H622.257V620.162H622.576C623.144 618.564 624.091 617.303 625.417 616.38C626.743 615.457 628.329 614.995 630.176 614.995C632.046 614.995 633.638 615.463 634.952 616.398C636.266 617.321 637.142 618.576 637.58 620.162H637.864C638.42 618.6 639.426 617.351 640.882 616.416C642.35 615.469 644.084 614.995 646.085 614.995C648.63 614.995 650.695 615.806 652.281 617.428C653.879 619.038 654.678 621.322 654.678 624.281V642.623H647.132V625.773C647.132 624.258 646.73 623.121 645.925 622.364C645.12 621.606 644.114 621.227 642.906 621.227C641.533 621.227 640.462 621.665 639.693 622.541C638.923 623.405 638.539 624.548 638.539 625.968V642.623H631.205V625.613C631.205 624.276 630.821 623.21 630.051 622.417C629.294 621.624 628.294 621.227 627.051 621.227C626.21 621.227 625.453 621.441 624.778 621.867C624.115 622.281 623.588 622.867 623.198 623.624C622.807 624.37 622.612 625.246 622.612 626.252V642.623H615.048Z" fill="#401857"/>
<defs>
<linearGradient id="paint0_linear_1283_8800" x1="418.971" y1="537.094" x2="510.971" y2="663.094" gradientUnits="userSpaceOnUse">
<stop stop-color="#515BD4"/>
<stop offset="0.327247" stop-color="#8134AF"/>
<stop offset="0.762508" stop-color="#DD2A7B"/>
<stop offset="1" stop-color="#F58529"/>
</linearGradient>
<linearGradient id="paint1_linear_1283_8800" x1="428.971" y1="570.594" x2="486.971" y2="648.094" gradientUnits="userSpaceOnUse">
<stop stop-color="#515BD4"/>
<stop offset="0.236066" stop-color="#8134AF"/>
<stop offset="0.871913" stop-color="#DD2A7B"/>
</linearGradient>
<linearGradient id="paint2_linear_1283_8800" x1="442.471" y1="556.594" x2="464.471" y2="591.594" gradientUnits="userSpaceOnUse">
<stop stop-color="#515BD4"/>
<stop offset="0.644902" stop-color="#8134AF"/>
</linearGradient>
<linearGradient id="paint3_linear_1283_8800" x1="426.471" y1="606.594" x2="510.971" y2="664.094" gradientUnits="userSpaceOnUse">
<stop offset="0.125301" stop-color="#8134AF"/>
<stop offset="0.568368" stop-color="#DD2A7B"/>
<stop offset="1" stop-color="#F58529"/>
</linearGradient>
</defs>
</svg>
